<mxfile host="app.diagrams.net" modified="2023-03-27T07:17:44.457Z" agent="Mozilla/5.0 (Windows NT 10.0; Win64; x64) AppleWebKit/537.36 (KHTML, like Gecko) Chrome/111.0.0.0 Safari/537.36" etag="M_ysx2AygMwGqDU5Y7Gy" version="21.1.1" type="github">
  <diagram id="C5RBs43oDa-KdzZeNtuy" name="Page-1">
    <mxGraphModel dx="934" dy="561" grid="1" gridSize="10" guides="1" tooltips="1" connect="1" arrows="1" fold="1" page="1" pageScale="1" pageWidth="827" pageHeight="1169" math="0" shadow="0">
      <root>
        <mxCell id="WIyWlLk6GJQsqaUBKTNV-0" />
        <mxCell id="WIyWlLk6GJQsqaUBKTNV-1" parent="WIyWlLk6GJQsqaUBKTNV-0" />
        <mxCell id="ktbN5aYwxhZYsoAh1HYY-9" value="" style="edgeStyle=orthogonalEdgeStyle;rounded=0;orthogonalLoop=1;jettySize=auto;html=1;strokeColor=#808080;" edge="1" parent="WIyWlLk6GJQsqaUBKTNV-1" source="ktbN5aYwxhZYsoAh1HYY-3" target="ktbN5aYwxhZYsoAh1HYY-4">
          <mxGeometry relative="1" as="geometry" />
        </mxCell>
        <mxCell id="ktbN5aYwxhZYsoAh1HYY-3" value="Mulai" style="strokeWidth=1;html=1;shape=mxgraph.flowchart.terminator;whiteSpace=wrap;strokeColor=#808080;" vertex="1" parent="WIyWlLk6GJQsqaUBKTNV-1">
          <mxGeometry x="450" y="30" width="90" height="50" as="geometry" />
        </mxCell>
        <mxCell id="ktbN5aYwxhZYsoAh1HYY-7" value="" style="edgeStyle=orthogonalEdgeStyle;rounded=0;orthogonalLoop=1;jettySize=auto;html=1;strokeColor=#808080;" edge="1" parent="WIyWlLk6GJQsqaUBKTNV-1" source="ktbN5aYwxhZYsoAh1HYY-4" target="ktbN5aYwxhZYsoAh1HYY-6">
          <mxGeometry relative="1" as="geometry" />
        </mxCell>
        <mxCell id="ktbN5aYwxhZYsoAh1HYY-4" value="Identifikasi masalah" style="rounded=1;whiteSpace=wrap;html=1;absoluteArcSize=1;arcSize=14;strokeWidth=1;strokeColor=#808080;" vertex="1" parent="WIyWlLk6GJQsqaUBKTNV-1">
          <mxGeometry x="314" y="120" width="100" height="50" as="geometry" />
        </mxCell>
        <mxCell id="ktbN5aYwxhZYsoAh1HYY-11" value="" style="edgeStyle=orthogonalEdgeStyle;rounded=0;orthogonalLoop=1;jettySize=auto;html=1;strokeColor=#808080;" edge="1" parent="WIyWlLk6GJQsqaUBKTNV-1" source="ktbN5aYwxhZYsoAh1HYY-6" target="ktbN5aYwxhZYsoAh1HYY-10">
          <mxGeometry relative="1" as="geometry" />
        </mxCell>
        <mxCell id="ktbN5aYwxhZYsoAh1HYY-6" value="Pengumpulan data" style="rounded=1;whiteSpace=wrap;html=1;strokeColor=#808080;arcSize=14;strokeWidth=1;" vertex="1" parent="WIyWlLk6GJQsqaUBKTNV-1">
          <mxGeometry x="445" y="120" width="100" height="50" as="geometry" />
        </mxCell>
        <mxCell id="ktbN5aYwxhZYsoAh1HYY-16" value="" style="edgeStyle=orthogonalEdgeStyle;rounded=0;orthogonalLoop=1;jettySize=auto;html=1;strokeColor=#808080;" edge="1" parent="WIyWlLk6GJQsqaUBKTNV-1" source="ktbN5aYwxhZYsoAh1HYY-10" target="ktbN5aYwxhZYsoAh1HYY-15">
          <mxGeometry relative="1" as="geometry" />
        </mxCell>
        <mxCell id="ktbN5aYwxhZYsoAh1HYY-10" value="Analisis kebutuhan non-fungsional" style="rounded=1;whiteSpace=wrap;html=1;strokeColor=#808080;arcSize=14;strokeWidth=1;" vertex="1" parent="WIyWlLk6GJQsqaUBKTNV-1">
          <mxGeometry x="580" y="120" width="100" height="50" as="geometry" />
        </mxCell>
        <mxCell id="ktbN5aYwxhZYsoAh1HYY-12" value="&amp;lt;&amp;lt;Analisis&amp;gt;&amp;gt;" style="text;strokeColor=none;align=center;fillColor=none;html=1;verticalAlign=middle;whiteSpace=wrap;rounded=0;fontColor=#000000;textOpacity=50;fontSize=10;" vertex="1" parent="WIyWlLk6GJQsqaUBKTNV-1">
          <mxGeometry x="450" y="90" width="90" height="30" as="geometry" />
        </mxCell>
        <mxCell id="ktbN5aYwxhZYsoAh1HYY-18" value="" style="edgeStyle=orthogonalEdgeStyle;rounded=0;orthogonalLoop=1;jettySize=auto;html=1;strokeColor=#808080;" edge="1" parent="WIyWlLk6GJQsqaUBKTNV-1" source="ktbN5aYwxhZYsoAh1HYY-15" target="ktbN5aYwxhZYsoAh1HYY-17">
          <mxGeometry relative="1" as="geometry" />
        </mxCell>
        <mxCell id="ktbN5aYwxhZYsoAh1HYY-15" value="Pemodelan prosedur aplikasi dengan UML" style="rounded=1;whiteSpace=wrap;html=1;strokeColor=#808080;arcSize=14;strokeWidth=1;" vertex="1" parent="WIyWlLk6GJQsqaUBKTNV-1">
          <mxGeometry x="580" y="210" width="100" height="50" as="geometry" />
        </mxCell>
        <mxCell id="ktbN5aYwxhZYsoAh1HYY-20" value="" style="edgeStyle=orthogonalEdgeStyle;rounded=0;orthogonalLoop=1;jettySize=auto;html=1;strokeColor=#808080;" edge="1" parent="WIyWlLk6GJQsqaUBKTNV-1" source="ktbN5aYwxhZYsoAh1HYY-17" target="ktbN5aYwxhZYsoAh1HYY-19">
          <mxGeometry relative="1" as="geometry" />
        </mxCell>
        <mxCell id="ktbN5aYwxhZYsoAh1HYY-17" value="Wireframing" style="rounded=1;whiteSpace=wrap;html=1;strokeColor=#808080;arcSize=14;strokeWidth=1;" vertex="1" parent="WIyWlLk6GJQsqaUBKTNV-1">
          <mxGeometry x="445" y="210" width="100" height="50" as="geometry" />
        </mxCell>
        <mxCell id="ktbN5aYwxhZYsoAh1HYY-28" value="" style="edgeStyle=orthogonalEdgeStyle;rounded=0;orthogonalLoop=1;jettySize=auto;html=1;strokeColor=#808080;" edge="1" parent="WIyWlLk6GJQsqaUBKTNV-1" source="ktbN5aYwxhZYsoAh1HYY-19" target="ktbN5aYwxhZYsoAh1HYY-27">
          <mxGeometry relative="1" as="geometry" />
        </mxCell>
        <mxCell id="ktbN5aYwxhZYsoAh1HYY-19" value="Prototyping" style="rounded=1;whiteSpace=wrap;html=1;strokeColor=#808080;arcSize=14;strokeWidth=1;" vertex="1" parent="WIyWlLk6GJQsqaUBKTNV-1">
          <mxGeometry x="314" y="210" width="100" height="50" as="geometry" />
        </mxCell>
        <mxCell id="ktbN5aYwxhZYsoAh1HYY-31" value="Ya" style="edgeStyle=orthogonalEdgeStyle;rounded=0;orthogonalLoop=1;jettySize=auto;html=1;strokeColor=#808080;" edge="1" parent="WIyWlLk6GJQsqaUBKTNV-1" source="ktbN5aYwxhZYsoAh1HYY-27" target="ktbN5aYwxhZYsoAh1HYY-30">
          <mxGeometry x="0.0131" relative="1" as="geometry">
            <mxPoint as="offset" />
          </mxGeometry>
        </mxCell>
        <mxCell id="ktbN5aYwxhZYsoAh1HYY-38" value="Tidak" style="edgeStyle=orthogonalEdgeStyle;rounded=0;orthogonalLoop=1;jettySize=auto;html=1;exitX=0;exitY=0.5;exitDx=0;exitDy=0;entryX=0;entryY=0.5;entryDx=0;entryDy=0;" edge="1" parent="WIyWlLk6GJQsqaUBKTNV-1" source="ktbN5aYwxhZYsoAh1HYY-27" target="ktbN5aYwxhZYsoAh1HYY-37">
          <mxGeometry relative="1" as="geometry">
            <Array as="points">
              <mxPoint x="280" y="340" />
              <mxPoint x="280" y="455" />
            </Array>
            <mxPoint as="offset" />
          </mxGeometry>
        </mxCell>
        <mxCell id="ktbN5aYwxhZYsoAh1HYY-27" value="Evaluasi?" style="rhombus;whiteSpace=wrap;html=1;strokeColor=#808080;rounded=0;arcSize=14;strokeWidth=1;" vertex="1" parent="WIyWlLk6GJQsqaUBKTNV-1">
          <mxGeometry x="324" y="300" width="80" height="80" as="geometry" />
        </mxCell>
        <mxCell id="ktbN5aYwxhZYsoAh1HYY-32" value="Ya" style="edgeStyle=orthogonalEdgeStyle;rounded=0;orthogonalLoop=1;jettySize=auto;html=1;entryX=0.5;entryY=1;entryDx=0;entryDy=0;strokeColor=#808080;" edge="1" parent="WIyWlLk6GJQsqaUBKTNV-1" source="ktbN5aYwxhZYsoAh1HYY-30" target="ktbN5aYwxhZYsoAh1HYY-15">
          <mxGeometry x="-0.4855" relative="1" as="geometry">
            <Array as="points">
              <mxPoint x="630" y="340" />
            </Array>
            <mxPoint as="offset" />
          </mxGeometry>
        </mxCell>
        <mxCell id="ktbN5aYwxhZYsoAh1HYY-33" value="Tidak" style="edgeStyle=orthogonalEdgeStyle;rounded=0;orthogonalLoop=1;jettySize=auto;html=1;entryX=0.5;entryY=1;entryDx=0;entryDy=0;strokeColor=#808080;" edge="1" parent="WIyWlLk6GJQsqaUBKTNV-1" source="ktbN5aYwxhZYsoAh1HYY-30" target="ktbN5aYwxhZYsoAh1HYY-17">
          <mxGeometry relative="1" as="geometry">
            <mxPoint as="offset" />
          </mxGeometry>
        </mxCell>
        <mxCell id="ktbN5aYwxhZYsoAh1HYY-30" value="Perbaiki model?" style="rhombus;whiteSpace=wrap;html=1;strokeColor=#808080;rounded=0;arcSize=14;strokeWidth=1;" vertex="1" parent="WIyWlLk6GJQsqaUBKTNV-1">
          <mxGeometry x="455" y="300" width="80" height="80" as="geometry" />
        </mxCell>
        <mxCell id="ktbN5aYwxhZYsoAh1HYY-34" value="&amp;lt;&amp;lt;Desain&amp;gt;&amp;gt;" style="text;strokeColor=none;align=center;fillColor=none;html=1;verticalAlign=middle;whiteSpace=wrap;rounded=0;fontColor=#000000;textOpacity=50;fontSize=10;" vertex="1" parent="WIyWlLk6GJQsqaUBKTNV-1">
          <mxGeometry x="450" y="180" width="90" height="30" as="geometry" />
        </mxCell>
        <mxCell id="ktbN5aYwxhZYsoAh1HYY-78" value="" style="edgeStyle=orthogonalEdgeStyle;rounded=0;orthogonalLoop=1;jettySize=auto;html=1;" edge="1" parent="WIyWlLk6GJQsqaUBKTNV-1" source="ktbN5aYwxhZYsoAh1HYY-37" target="ktbN5aYwxhZYsoAh1HYY-77">
          <mxGeometry relative="1" as="geometry" />
        </mxCell>
        <mxCell id="ktbN5aYwxhZYsoAh1HYY-37" value="Implementasi:&lt;br style=&quot;font-size: 10px;&quot;&gt;- XML&lt;br style=&quot;font-size: 10px;&quot;&gt;- Android Studio&lt;br style=&quot;font-size: 10px;&quot;&gt;- Kotlin" style="rounded=1;whiteSpace=wrap;html=1;strokeColor=#808080;arcSize=14;strokeWidth=1;fontSize=10;" vertex="1" parent="WIyWlLk6GJQsqaUBKTNV-1">
          <mxGeometry x="306" y="430" width="116" height="50" as="geometry" />
        </mxCell>
        <mxCell id="ktbN5aYwxhZYsoAh1HYY-52" value="&amp;lt;&amp;lt;Implementasi&amp;gt;&amp;gt;" style="text;strokeColor=none;align=center;fillColor=none;html=1;verticalAlign=middle;whiteSpace=wrap;rounded=0;fontColor=#000000;textOpacity=50;fontSize=10;" vertex="1" parent="WIyWlLk6GJQsqaUBKTNV-1">
          <mxGeometry x="610" y="420" width="90" height="30" as="geometry" />
        </mxCell>
        <mxCell id="ktbN5aYwxhZYsoAh1HYY-79" style="edgeStyle=orthogonalEdgeStyle;rounded=0;orthogonalLoop=1;jettySize=auto;html=1;exitX=0.5;exitY=0;exitDx=0;exitDy=0;entryX=0.5;entryY=0;entryDx=0;entryDy=0;" edge="1" parent="WIyWlLk6GJQsqaUBKTNV-1" source="ktbN5aYwxhZYsoAh1HYY-77" target="ktbN5aYwxhZYsoAh1HYY-37">
          <mxGeometry relative="1" as="geometry" />
        </mxCell>
        <mxCell id="ktbN5aYwxhZYsoAh1HYY-84" value="Ya" style="edgeLabel;html=1;align=center;verticalAlign=middle;resizable=0;points=[];" vertex="1" connectable="0" parent="ktbN5aYwxhZYsoAh1HYY-79">
          <mxGeometry x="-0.584" y="-1" relative="1" as="geometry">
            <mxPoint x="-21" as="offset" />
          </mxGeometry>
        </mxCell>
        <mxCell id="ktbN5aYwxhZYsoAh1HYY-81" value="" style="edgeStyle=orthogonalEdgeStyle;rounded=0;orthogonalLoop=1;jettySize=auto;html=1;entryX=1;entryY=0.5;entryDx=0;entryDy=0;" edge="1" parent="WIyWlLk6GJQsqaUBKTNV-1" source="ktbN5aYwxhZYsoAh1HYY-77" target="ktbN5aYwxhZYsoAh1HYY-80">
          <mxGeometry relative="1" as="geometry" />
        </mxCell>
        <mxCell id="ktbN5aYwxhZYsoAh1HYY-82" value="Tidak" style="edgeLabel;html=1;align=center;verticalAlign=middle;resizable=0;points=[];" vertex="1" connectable="0" parent="ktbN5aYwxhZYsoAh1HYY-81">
          <mxGeometry x="-0.6556" y="-3" relative="1" as="geometry">
            <mxPoint y="-3" as="offset" />
          </mxGeometry>
        </mxCell>
        <mxCell id="ktbN5aYwxhZYsoAh1HYY-77" value="Evaluasi?" style="rhombus;whiteSpace=wrap;html=1;fontSize=12;strokeColor=#808080;rounded=0;arcSize=14;strokeWidth=1;" vertex="1" parent="WIyWlLk6GJQsqaUBKTNV-1">
          <mxGeometry x="455" y="415" width="80" height="80" as="geometry" />
        </mxCell>
        <mxCell id="ktbN5aYwxhZYsoAh1HYY-86" value="" style="edgeStyle=orthogonalEdgeStyle;rounded=0;orthogonalLoop=1;jettySize=auto;html=1;" edge="1" parent="WIyWlLk6GJQsqaUBKTNV-1" source="ktbN5aYwxhZYsoAh1HYY-80" target="ktbN5aYwxhZYsoAh1HYY-85">
          <mxGeometry relative="1" as="geometry" />
        </mxCell>
        <mxCell id="ktbN5aYwxhZYsoAh1HYY-80" value="Pengujian:&lt;br style=&quot;font-size: 10px;&quot;&gt;- Unit&lt;br style=&quot;font-size: 10px;&quot;&gt;-instrumental&lt;br style=&quot;font-size: 10px;&quot;&gt;-Sistem" style="whiteSpace=wrap;html=1;strokeColor=#808080;rounded=1;arcSize=14;strokeWidth=1;fontSize=10;" vertex="1" parent="WIyWlLk6GJQsqaUBKTNV-1">
          <mxGeometry x="580" y="545" width="100" height="50" as="geometry" />
        </mxCell>
        <mxCell id="ktbN5aYwxhZYsoAh1HYY-87" style="edgeStyle=orthogonalEdgeStyle;rounded=0;orthogonalLoop=1;jettySize=auto;html=1;exitX=0.5;exitY=0;exitDx=0;exitDy=0;entryX=0.5;entryY=0;entryDx=0;entryDy=0;" edge="1" parent="WIyWlLk6GJQsqaUBKTNV-1" source="ktbN5aYwxhZYsoAh1HYY-85" target="ktbN5aYwxhZYsoAh1HYY-80">
          <mxGeometry relative="1" as="geometry" />
        </mxCell>
        <mxCell id="ktbN5aYwxhZYsoAh1HYY-92" value="" style="edgeStyle=orthogonalEdgeStyle;rounded=0;orthogonalLoop=1;jettySize=auto;html=1;" edge="1" parent="WIyWlLk6GJQsqaUBKTNV-1" source="ktbN5aYwxhZYsoAh1HYY-85" target="ktbN5aYwxhZYsoAh1HYY-91">
          <mxGeometry relative="1" as="geometry" />
        </mxCell>
        <mxCell id="ktbN5aYwxhZYsoAh1HYY-100" value="Tidak" style="edgeLabel;html=1;align=center;verticalAlign=middle;resizable=0;points=[];" vertex="1" connectable="0" parent="ktbN5aYwxhZYsoAh1HYY-92">
          <mxGeometry x="0.3905" y="4" relative="1" as="geometry">
            <mxPoint x="-4" as="offset" />
          </mxGeometry>
        </mxCell>
        <mxCell id="ktbN5aYwxhZYsoAh1HYY-85" value="Verifikasi?" style="rhombus;whiteSpace=wrap;html=1;fontSize=12;strokeColor=#808080;rounded=0;arcSize=14;strokeWidth=1;" vertex="1" parent="WIyWlLk6GJQsqaUBKTNV-1">
          <mxGeometry x="455" y="530" width="80" height="80" as="geometry" />
        </mxCell>
        <mxCell id="ktbN5aYwxhZYsoAh1HYY-94" value="" style="edgeStyle=orthogonalEdgeStyle;rounded=0;orthogonalLoop=1;jettySize=auto;html=1;" edge="1" parent="WIyWlLk6GJQsqaUBKTNV-1" source="ktbN5aYwxhZYsoAh1HYY-91" target="ktbN5aYwxhZYsoAh1HYY-93">
          <mxGeometry relative="1" as="geometry" />
        </mxCell>
        <mxCell id="ktbN5aYwxhZYsoAh1HYY-91" value="Pemeliharaan Sistem" style="rounded=1;whiteSpace=wrap;html=1;strokeColor=#808080;arcSize=14;strokeWidth=1;" vertex="1" parent="WIyWlLk6GJQsqaUBKTNV-1">
          <mxGeometry x="304" y="650" width="100" height="50" as="geometry" />
        </mxCell>
        <mxCell id="ktbN5aYwxhZYsoAh1HYY-99" style="edgeStyle=orthogonalEdgeStyle;rounded=0;orthogonalLoop=1;jettySize=auto;html=1;entryX=0.5;entryY=0;entryDx=0;entryDy=0;entryPerimeter=0;" edge="1" parent="WIyWlLk6GJQsqaUBKTNV-1" source="ktbN5aYwxhZYsoAh1HYY-93" target="ktbN5aYwxhZYsoAh1HYY-98">
          <mxGeometry relative="1" as="geometry" />
        </mxCell>
        <mxCell id="ktbN5aYwxhZYsoAh1HYY-93" value="Pembuatan Laporan" style="whiteSpace=wrap;html=1;strokeColor=#808080;rounded=1;arcSize=14;strokeWidth=1;" vertex="1" parent="WIyWlLk6GJQsqaUBKTNV-1">
          <mxGeometry x="445" y="650" width="100" height="50" as="geometry" />
        </mxCell>
        <mxCell id="ktbN5aYwxhZYsoAh1HYY-95" value="&amp;lt;&amp;lt;Pengujian&amp;gt;&amp;gt;" style="text;strokeColor=none;align=center;fillColor=none;html=1;verticalAlign=middle;whiteSpace=wrap;rounded=0;fontColor=#000000;textOpacity=50;fontSize=10;" vertex="1" parent="WIyWlLk6GJQsqaUBKTNV-1">
          <mxGeometry x="355" y="540" width="90" height="30" as="geometry" />
        </mxCell>
        <mxCell id="ktbN5aYwxhZYsoAh1HYY-96" value="&amp;lt;&amp;lt;Pemeliharaan &amp;amp; Pendukung&amp;gt;&amp;gt;" style="text;strokeColor=none;align=center;fillColor=none;html=1;verticalAlign=middle;whiteSpace=wrap;rounded=0;fontColor=#000000;textOpacity=50;fontSize=10;" vertex="1" parent="WIyWlLk6GJQsqaUBKTNV-1">
          <mxGeometry x="395" y="620" width="200" height="30" as="geometry" />
        </mxCell>
        <mxCell id="ktbN5aYwxhZYsoAh1HYY-98" value="Selesai" style="strokeWidth=1;html=1;shape=mxgraph.flowchart.terminator;whiteSpace=wrap;" vertex="1" parent="WIyWlLk6GJQsqaUBKTNV-1">
          <mxGeometry x="450" y="730" width="90" height="50" as="geometry" />
        </mxCell>
        <mxCell id="ktbN5aYwxhZYsoAh1HYY-103" value="Ya" style="edgeStyle=orthogonalEdgeStyle;rounded=0;orthogonalLoop=1;jettySize=auto;html=1;strokeColor=#808080;" edge="1" parent="WIyWlLk6GJQsqaUBKTNV-1">
          <mxGeometry x="0.0131" relative="1" as="geometry">
            <mxPoint x="404" y="340" as="sourcePoint" />
            <mxPoint x="455" y="340" as="targetPoint" />
            <mxPoint as="offset" />
          </mxGeometry>
        </mxCell>
        <mxCell id="ktbN5aYwxhZYsoAh1HYY-104" value="Tidak" style="edgeStyle=orthogonalEdgeStyle;rounded=0;orthogonalLoop=1;jettySize=auto;html=1;exitX=0;exitY=0.5;exitDx=0;exitDy=0;entryX=0;entryY=0.5;entryDx=0;entryDy=0;strokeColor=#808080;" edge="1" target="ktbN5aYwxhZYsoAh1HYY-106" parent="WIyWlLk6GJQsqaUBKTNV-1">
          <mxGeometry relative="1" as="geometry">
            <mxPoint x="324" y="340" as="sourcePoint" />
            <Array as="points">
              <mxPoint x="280" y="340" />
              <mxPoint x="280" y="455" />
            </Array>
            <mxPoint as="offset" />
          </mxGeometry>
        </mxCell>
        <mxCell id="ktbN5aYwxhZYsoAh1HYY-105" value="" style="edgeStyle=orthogonalEdgeStyle;rounded=0;orthogonalLoop=1;jettySize=auto;html=1;strokeColor=#808080;" edge="1" source="ktbN5aYwxhZYsoAh1HYY-106" target="ktbN5aYwxhZYsoAh1HYY-111" parent="WIyWlLk6GJQsqaUBKTNV-1">
          <mxGeometry relative="1" as="geometry" />
        </mxCell>
        <mxCell id="ktbN5aYwxhZYsoAh1HYY-106" value="Implementasi:&lt;br style=&quot;font-size: 10px;&quot;&gt;- XML&lt;br style=&quot;font-size: 10px;&quot;&gt;- Android Studio&lt;br style=&quot;font-size: 10px;&quot;&gt;- Kotlin" style="rounded=1;whiteSpace=wrap;html=1;strokeColor=#808080;arcSize=14;strokeWidth=1;fontSize=10;" vertex="1" parent="WIyWlLk6GJQsqaUBKTNV-1">
          <mxGeometry x="306" y="430" width="116" height="50" as="geometry" />
        </mxCell>
        <mxCell id="ktbN5aYwxhZYsoAh1HYY-107" style="edgeStyle=orthogonalEdgeStyle;rounded=0;orthogonalLoop=1;jettySize=auto;html=1;exitX=0.5;exitY=0;exitDx=0;exitDy=0;entryX=0.5;entryY=0;entryDx=0;entryDy=0;strokeColor=#808080;" edge="1" source="ktbN5aYwxhZYsoAh1HYY-111" target="ktbN5aYwxhZYsoAh1HYY-106" parent="WIyWlLk6GJQsqaUBKTNV-1">
          <mxGeometry relative="1" as="geometry" />
        </mxCell>
        <mxCell id="ktbN5aYwxhZYsoAh1HYY-108" value="Ya" style="edgeLabel;html=1;align=center;verticalAlign=middle;resizable=0;points=[];" vertex="1" connectable="0" parent="ktbN5aYwxhZYsoAh1HYY-107">
          <mxGeometry x="-0.584" y="-1" relative="1" as="geometry">
            <mxPoint x="-21" as="offset" />
          </mxGeometry>
        </mxCell>
        <mxCell id="ktbN5aYwxhZYsoAh1HYY-109" value="" style="edgeStyle=orthogonalEdgeStyle;rounded=0;orthogonalLoop=1;jettySize=auto;html=1;entryX=1;entryY=0.5;entryDx=0;entryDy=0;strokeColor=#808080;" edge="1" source="ktbN5aYwxhZYsoAh1HYY-111" target="ktbN5aYwxhZYsoAh1HYY-113" parent="WIyWlLk6GJQsqaUBKTNV-1">
          <mxGeometry relative="1" as="geometry" />
        </mxCell>
        <mxCell id="ktbN5aYwxhZYsoAh1HYY-110" value="Tidak" style="edgeLabel;html=1;align=center;verticalAlign=middle;resizable=0;points=[];" vertex="1" connectable="0" parent="ktbN5aYwxhZYsoAh1HYY-109">
          <mxGeometry x="-0.6556" y="-3" relative="1" as="geometry">
            <mxPoint y="-3" as="offset" />
          </mxGeometry>
        </mxCell>
        <mxCell id="ktbN5aYwxhZYsoAh1HYY-111" value="Evaluasi?" style="rhombus;whiteSpace=wrap;html=1;fontSize=12;strokeColor=#808080;rounded=0;arcSize=14;strokeWidth=1;" vertex="1" parent="WIyWlLk6GJQsqaUBKTNV-1">
          <mxGeometry x="455" y="415" width="80" height="80" as="geometry" />
        </mxCell>
        <mxCell id="ktbN5aYwxhZYsoAh1HYY-112" value="" style="edgeStyle=orthogonalEdgeStyle;rounded=0;orthogonalLoop=1;jettySize=auto;html=1;strokeColor=#808080;" edge="1" source="ktbN5aYwxhZYsoAh1HYY-113" target="ktbN5aYwxhZYsoAh1HYY-118" parent="WIyWlLk6GJQsqaUBKTNV-1">
          <mxGeometry relative="1" as="geometry" />
        </mxCell>
        <mxCell id="ktbN5aYwxhZYsoAh1HYY-113" value="Pengujian:&lt;br style=&quot;font-size: 10px;&quot;&gt;- Unit&lt;br style=&quot;font-size: 10px;&quot;&gt;-instrumental&lt;br style=&quot;font-size: 10px;&quot;&gt;-Sistem" style="whiteSpace=wrap;html=1;strokeColor=#808080;rounded=1;arcSize=14;strokeWidth=1;fontSize=10;" vertex="1" parent="WIyWlLk6GJQsqaUBKTNV-1">
          <mxGeometry x="580" y="545" width="100" height="50" as="geometry" />
        </mxCell>
        <mxCell id="ktbN5aYwxhZYsoAh1HYY-114" style="edgeStyle=orthogonalEdgeStyle;rounded=0;orthogonalLoop=1;jettySize=auto;html=1;exitX=0.5;exitY=0;exitDx=0;exitDy=0;entryX=0.5;entryY=0;entryDx=0;entryDy=0;strokeColor=#808080;" edge="1" source="ktbN5aYwxhZYsoAh1HYY-118" target="ktbN5aYwxhZYsoAh1HYY-113" parent="WIyWlLk6GJQsqaUBKTNV-1">
          <mxGeometry relative="1" as="geometry" />
        </mxCell>
        <mxCell id="ktbN5aYwxhZYsoAh1HYY-115" value="Ya" style="edgeLabel;html=1;align=center;verticalAlign=middle;resizable=0;points=[];" vertex="1" connectable="0" parent="ktbN5aYwxhZYsoAh1HYY-114">
          <mxGeometry x="0.2222" y="-1" relative="1" as="geometry">
            <mxPoint x="-11" y="-1" as="offset" />
          </mxGeometry>
        </mxCell>
        <mxCell id="ktbN5aYwxhZYsoAh1HYY-116" value="" style="edgeStyle=orthogonalEdgeStyle;rounded=0;orthogonalLoop=1;jettySize=auto;html=1;strokeColor=#808080;" edge="1" source="ktbN5aYwxhZYsoAh1HYY-118" target="ktbN5aYwxhZYsoAh1HYY-120" parent="WIyWlLk6GJQsqaUBKTNV-1">
          <mxGeometry relative="1" as="geometry" />
        </mxCell>
        <mxCell id="ktbN5aYwxhZYsoAh1HYY-117" value="Tidak" style="edgeLabel;html=1;align=center;verticalAlign=middle;resizable=0;points=[];" vertex="1" connectable="0" parent="ktbN5aYwxhZYsoAh1HYY-116">
          <mxGeometry x="0.3905" y="4" relative="1" as="geometry">
            <mxPoint x="-4" as="offset" />
          </mxGeometry>
        </mxCell>
        <mxCell id="ktbN5aYwxhZYsoAh1HYY-118" value="Verifikasi?" style="rhombus;whiteSpace=wrap;html=1;fontSize=12;strokeColor=#808080;rounded=0;arcSize=14;strokeWidth=1;" vertex="1" parent="WIyWlLk6GJQsqaUBKTNV-1">
          <mxGeometry x="455" y="530" width="80" height="80" as="geometry" />
        </mxCell>
        <mxCell id="ktbN5aYwxhZYsoAh1HYY-119" value="" style="edgeStyle=orthogonalEdgeStyle;rounded=0;orthogonalLoop=1;jettySize=auto;html=1;strokeColor=#808080;" edge="1" source="ktbN5aYwxhZYsoAh1HYY-120" target="ktbN5aYwxhZYsoAh1HYY-122" parent="WIyWlLk6GJQsqaUBKTNV-1">
          <mxGeometry relative="1" as="geometry" />
        </mxCell>
        <mxCell id="ktbN5aYwxhZYsoAh1HYY-120" value="Pemeliharaan Sistem" style="rounded=1;whiteSpace=wrap;html=1;strokeColor=#808080;arcSize=14;strokeWidth=1;" vertex="1" parent="WIyWlLk6GJQsqaUBKTNV-1">
          <mxGeometry x="304" y="650" width="100" height="50" as="geometry" />
        </mxCell>
        <mxCell id="ktbN5aYwxhZYsoAh1HYY-121" style="edgeStyle=orthogonalEdgeStyle;rounded=0;orthogonalLoop=1;jettySize=auto;html=1;entryX=0.5;entryY=0;entryDx=0;entryDy=0;entryPerimeter=0;strokeColor=#808080;" edge="1" source="ktbN5aYwxhZYsoAh1HYY-122" target="ktbN5aYwxhZYsoAh1HYY-124" parent="WIyWlLk6GJQsqaUBKTNV-1">
          <mxGeometry relative="1" as="geometry" />
        </mxCell>
        <mxCell id="ktbN5aYwxhZYsoAh1HYY-122" value="Pembuatan Laporan" style="whiteSpace=wrap;html=1;strokeColor=#808080;rounded=1;arcSize=14;strokeWidth=1;" vertex="1" parent="WIyWlLk6GJQsqaUBKTNV-1">
          <mxGeometry x="445" y="650" width="100" height="50" as="geometry" />
        </mxCell>
        <mxCell id="ktbN5aYwxhZYsoAh1HYY-124" value="Selesai" style="strokeWidth=1;html=1;shape=mxgraph.flowchart.terminator;whiteSpace=wrap;strokeColor=#808080;" vertex="1" parent="WIyWlLk6GJQsqaUBKTNV-1">
          <mxGeometry x="450" y="730" width="90" height="50" as="geometry" />
        </mxCell>
      </root>
    </mxGraphModel>
  </diagram>
</mxfile>
